<svg width="222" height="222" viewBox="0 0 222 222" fill="none" xmlns="http://www.w3.org/2000/svg">
<path d="M150.204 35.0967H160.064V92.1689H172.011V101.177H178.888V119.427H182.935V119.446H187L186.943 144.126L186.867 162.825L182.649 162.903L178.413 162.962V173.97H166.748V185H142.011V195H80.0107V185H55.8975L55.9736 179.485L56.0498 173.97H44.043V162.962H35V119.446H43.7578V101.196H52.0791V92.1689H62.8994V35.1162H72.6641V27.0195H96.4492V35.1162H104.771V90.1689H117.832V35.0967H126.647V27H150.204V35.0967ZM101.402 151.382H106.564L106.469 156.075V160.887H100.275L94.1396 160.945V169.413L100.371 169.354L106.469 169.296V160.887L110.839 160.945H115.303V167.927L115.36 169.296H127.822V165.11H127.784V160.906L121.534 160.926L115.303 160.945L115.36 156.114L115.436 151.323L119.083 151.343L120.693 151.401V142.815H101.402V151.382ZM86 153V161H94V153H86ZM128 161H136V153H128V161ZM75.4082 145.347H87.7939V133.427H75.4082V145.347ZM133.939 145.347H146.554V133.427H133.939V145.347Z" fill="#030712"/>
</svg>
